<svg xmlns="http://www.w3.org/2000/svg" width="64" height="64" viewBox="0 0 64 64" role="img" aria-label="Worktide">
  <defs><clipPath id="ic"><circle cx="32" cy="32" r="23"/></clipPath></defs>
  <g clip-path="url(#ic)">
    <rect x="6" y="6" width="52" height="52" fill="#DCF4EC"/>
    <path d="M6 25 Q19 18 32 25 Q45 32 58 25 L58 58 L6 58 Z" fill="#5DCAA5"/>
    <path d="M6 35 Q19 28 32 35 Q45 42 58 35 L58 58 L6 58 Z" fill="#1D9E75"/>
    <path d="M6 45 Q19 38 32 45 Q45 52 58 45 L58 58 L6 58 Z" fill="#0B5E4D"/>
    <path d="M6 25 Q19 18 32 25 Q45 32 58 25" fill="none" stroke="#E0623A" stroke-width="2.5" stroke-linecap="round"/>
  </g>
  <circle cx="32" cy="32" r="23" fill="none" stroke="#0F8C72" stroke-width="2.5"/>
</svg>
