<svg xmlns="http://www.w3.org/2000/svg" width="266.9" height="64" viewBox="0 0 266.9 64" role="img" aria-label="Worktide">
  <defs><clipPath id="il_worktide-lockup"><circle cx="32" cy="32" r="23"/></clipPath></defs>
  <g clip-path="url(#il_worktide-lockup)">
    <rect x="6" y="6" width="52" height="52" fill="#DCF4EC"/>
    <path d="M6 25 Q19 18 32 25 Q45 32 58 25 L58 58 L6 58 Z" fill="#5DCAA5"/>
    <path d="M6 35 Q19 28 32 35 Q45 42 58 35 L58 58 L6 58 Z" fill="#1D9E75"/>
    <path d="M6 45 Q19 38 32 45 Q45 52 58 45 L58 58 L6 58 Z" fill="#0B5E4D"/>
    <path d="M6 25 Q19 18 32 25 Q45 32 58 25" fill="none" stroke="#E0623A" stroke-width="2.5" stroke-linecap="round"/>
  </g>
  <circle cx="32" cy="32" r="23" fill="none" stroke="#0F8C72" stroke-width="2.5"/>
  <g transform="translate(76.0,46.70) scale(0.4286)">
    <path d="M13.59 -0.00 L3.30 -70.00 L14.09 -70.00 L22.50 -7.30 L24.09 -7.30 L34.91 -70.00 L53.80 -70.00 L64.59 -7.30 L66.20 -7.30 L74.50 -70.00 L85.30 -70.00 L75.00 -0.00 L56.09 -0.00 L45.09 -63.59 L43.50 -63.59 L32.59 -0.00 L13.59 -0.00 Z M119.40 1.41 Q112.00 1.41 106.25 -1.64 Q100.50 -4.70 97.20 -10.39 Q93.90 -16.09 93.90 -23.91 L93.90 -25.41 Q93.90 -33.20 97.20 -38.84 Q100.50 -44.50 106.25 -47.59 Q112.00 -50.70 119.40 -50.70 Q126.79 -50.70 132.59 -47.59 Q138.40 -44.50 141.70 -38.84 Q145.00 -33.20 145.00 -25.41 L145.00 -23.91 Q145.00 -16.09 141.70 -10.39 Q138.40 -4.70 132.59 -1.64 Q126.79 1.41 119.40 1.41 Z M119.40 -7.80 Q126.20 -7.80 130.45 -12.14 Q134.70 -16.50 134.70 -24.20 L134.70 -25.09 Q134.70 -32.80 130.50 -37.14 Q126.29 -41.50 119.40 -41.50 Q112.70 -41.50 108.45 -37.14 Q104.20 -32.80 104.20 -25.09 L104.20 -24.20 Q104.20 -16.50 108.45 -12.14 Q112.70 -7.80 119.40 -7.80 Z M157.79 -0.00 L157.79 -49.30 L167.90 -49.30 L167.90 -43.50 L169.50 -43.50 Q170.70 -46.59 173.34 -48.05 Q176.00 -49.50 179.90 -49.50 L185.79 -49.50 L185.79 -40.20 L179.50 -40.20 Q174.50 -40.20 171.29 -37.45 Q168.11 -34.70 168.11 -29.00 L168.11 -0.00 L157.79 -0.00 Z M196.49 -0.00 L196.49 -70.00 L206.81 -70.00 L206.81 -30.09 L208.40 -30.09 L227.81 -49.30 L241.49 -49.30 L216.60 -25.41 L242.31 -0.00 L228.70 -0.00 L208.40 -20.50 L206.81 -20.50 L206.81 -0.00 L196.49 -0.00 Z" fill="#14201C"/>
    <g transform="translate(242.31,0)"><path d="M26.09 -0.00 Q21.59 -0.00 18.94 -2.70 Q16.30 -5.41 16.30 -9.91 L16.30 -40.59 L2.70 -40.59 L2.70 -49.30 L16.30 -49.30 L16.30 -65.59 L26.59 -65.59 L26.59 -49.30 L41.30 -49.30 L41.30 -40.59 L26.59 -40.59 L26.59 -11.70 Q26.59 -8.70 29.41 -8.70 L39.70 -8.70 L39.70 -0.00 L26.09 -0.00 Z M53.39 -0.00 L53.39 -49.30 L63.71 -49.30 L63.71 -0.00 L53.39 -0.00 Z M58.60 -56.00 Q55.60 -56.00 53.55 -57.95 Q51.50 -59.91 51.50 -63.00 Q51.50 -66.09 53.55 -68.05 Q55.60 -70.00 58.60 -70.00 Q61.71 -70.00 63.71 -68.05 Q65.71 -66.09 65.71 -63.00 Q65.71 -59.91 63.71 -57.95 Q61.71 -56.00 58.60 -56.00 Z M99.40 1.41 Q93.31 1.41 88.10 -1.59 Q82.90 -4.59 79.74 -10.25 Q76.60 -15.91 76.60 -23.91 L76.60 -25.41 Q76.60 -33.30 79.70 -39.00 Q82.81 -44.70 87.99 -47.70 Q93.20 -50.70 99.40 -50.70 Q104.20 -50.70 107.45 -49.50 Q110.70 -48.30 112.79 -46.44 Q114.90 -44.59 115.99 -42.59 L117.60 -42.59 L117.60 -70.00 L127.90 -70.00 L127.90 -0.00 L117.81 -0.00 L117.81 -7.00 L116.20 -7.00 Q114.31 -3.80 110.45 -1.19 Q106.60 1.41 99.40 1.41 Z M102.31 -7.59 Q108.99 -7.59 113.34 -11.89 Q117.70 -16.20 117.70 -24.20 L117.70 -25.09 Q117.70 -33.00 113.40 -37.30 Q109.10 -41.59 102.31 -41.59 Q95.70 -41.59 91.34 -37.30 Q86.99 -33.00 86.99 -25.09 L86.99 -24.20 Q86.99 -16.20 91.34 -11.89 Q95.70 -7.59 102.31 -7.59 Z M165.70 1.41 Q158.20 1.41 152.59 -1.75 Q147.00 -4.91 143.84 -10.66 Q140.70 -16.41 140.70 -24.00 L140.70 -25.20 Q140.70 -32.91 143.80 -38.66 Q146.91 -44.41 152.45 -47.55 Q158.00 -50.70 165.30 -50.70 Q172.41 -50.70 177.75 -47.55 Q183.09 -44.41 186.09 -38.80 Q189.09 -33.20 189.09 -25.70 L189.09 -21.80 L151.20 -21.80 Q151.41 -15.30 155.55 -11.44 Q159.70 -7.59 165.91 -7.59 Q171.70 -7.59 174.64 -10.19 Q177.59 -12.80 179.20 -16.20 L187.70 -11.80 Q186.30 -9.00 183.64 -5.89 Q181.00 -2.80 176.70 -0.69 Q172.41 1.41 165.70 1.41 Z M151.30 -29.70 L178.59 -29.70 Q178.20 -35.30 174.59 -38.44 Q171.00 -41.59 165.20 -41.59 Q159.41 -41.59 155.75 -38.44 Q152.09 -35.30 151.30 -29.70 Z" fill="#0F8C72"/></g>
  </g>
</svg>
